<svg xmlns="http://www.w3.org/2000/svg" viewBox="0 0 800 800">
  <defs>
    <linearGradient id="bg-bazar-hogar" x1="0" y1="0" x2="1" y2="1">
      <stop offset="0%" stop-color="#FFFFFF"/>
      <stop offset="100%" stop-color="#F5E9E9"/>
    </linearGradient>
  </defs>
  <rect width="800" height="800" fill="url(#bg-bazar-hogar)"/>
  <circle cx="400" cy="400" r="220" fill="#F5E9E9" opacity="0.6"/>
  <g transform="translate(400,400) scale(11.5) translate(-12,-12)">
    <path d="m2.25 12 8.954-8.955c.44-.439 1.152-.439 1.591 0L21.75 12M4.5 9.75v10.125c0 .621.504 1.125 1.125 1.125H9.75v-4.875c0-.621.504-1.125 1.125-1.125h2.25c.621 0 1.125.504 1.125 1.125V21h4.125c.621 0 1.125-.504 1.125-1.125V9.75M8.25 21h8.25" fill="none" stroke="#9A3334" stroke-width="0.9" stroke-linecap="round" stroke-linejoin="round"/>
  </g>
</svg>
