<svg xmlns="http://www.w3.org/2000/svg" viewBox="0 0 800 800">
  <defs>
    <linearGradient id="bg-pintureria" x1="0" y1="0" x2="1" y2="1">
      <stop offset="0%" stop-color="#FFFFFF"/>
      <stop offset="100%" stop-color="#F5E9E9"/>
    </linearGradient>
  </defs>
  <rect width="800" height="800" fill="url(#bg-pintureria)"/>
  <circle cx="400" cy="400" r="220" fill="#F5E9E9" opacity="0.6"/>
  <g transform="translate(400,400) scale(11.5) translate(-12,-12)">
    <path d="M9.53 16.122a3 3 0 0 0-5.78 1.128 2.25 2.25 0 0 1-2.4 2.245 4.5 4.5 0 0 0 8.4-2.245c0-.399-.078-.78-.22-1.128Zm0 0a15.998 15.998 0 0 0 3.388-1.62m-5.043-.025a15.994 15.994 0 0 1 1.622-3.395m3.42 3.42a15.995 15.995 0 0 0 4.764-4.648l3.876-5.814a1.151 1.151 0 0 0-1.597-1.597L14.146 6.32a15.996 15.996 0 0 0-4.649 4.763m3.42 3.42a6.776 6.776 0 0 0-3.42-3.42" fill="none" stroke="#9A3334" stroke-width="0.9" stroke-linecap="round" stroke-linejoin="round"/>
  </g>
</svg>
